# xmcd CD database file
#
# Track frame offsets:
#	150
#	16962
#	30105
#	46972
#	65822
#	79490
#	95360
#	112585
#	129017
#	144975
#
# Disc length: 2212 seconds
#
# Revision: 6
# Processed by: cddbd v1.5.2PL0 Copyright (c) Steve Scherf et al.
# Submitted via: CDex 1.51
#
DISCID=7008a20a
DTITLE=Mike Bloomfield - John Paul Hammond - Dr.John - Triumvirate
DYEAR=1973
DGENRE=Blues
TTITLE0=Cha-Dooky-Doo
TTITLE1=Last Night
TTITLE2=I Yi Yi
TTITLE3=Just To Be With You
TTITLE4=Baby Let Me Kiss You
TTITLE5=Sho Bout To Drive Me Wild
TTITLE6=It Hurts Me Too
TTITLE7=Rock Me Baby
TTITLE8=Ground Hog Blues
TTITLE9=Pretty Thing
EXTD=YEAR: 1973
EXTT0=
EXTT1=
EXTT2=
EXTT3=
EXTT4=
EXTT5=
EXTT6=
EXTT7=
EXTT8=
EXTT9=
PLAYORDER=
